PathFileType	4	(X/Y/Z)	/home/abdul/Desktop/myosuite/custom_workspace/IK/output/S1_12_3.trc
DataRate	CameraRate	NumFrames	NumMarkers	Units	OrigDataRate	OrigDataStartFrame	OrigNumFrames
200.0	200.0	44	3	mm	200.0	1833	2443
Frame#	Time	V_Shoulder			V_Elbow			V_Wrist		
		X1	Y1	Z1	X2	Y2	Z2	X3	Y3	Z3

1833	9.16	-175.0248938668499	570.2458718115383	393.7133356327135	-289.7534122743976	366.30505306728696	112.67326257039302	-162.6747835529577	154.7644509911218	229.9670528359901
1834	9.165	-175.18397855424055	569.602541124911	393.522000002258	-289.38957092024384	366.19974278933626	111.78663831093307	-162.27133766525975	154.12032996379787	228.04715356395002
1835	9.17	-175.34026983864626	568.9591648659613	393.33089218444735	-289.0280253333131	366.0947395434415	110.90622169854203	-161.86861908395298	153.48617507173475	226.13719843347423
1836	9.175	-175.4937495993855	568.3158563852745	393.14005452553573	-288.6688089407154	365.9900636577323	110.0320915938627	-161.46681117402062	152.86187181735147	224.23749002220933
1837	9.18	-175.64440190394183	567.6727288007419	392.94952950045155	-288.31195355530804	365.8857338929139	109.16432516507376	-161.06609158459668	152.2473037588093	222.34832650439205
1838	9.185	-175.79221304722842	567.0298948549633	392.7593596947556	-287.9574894212914	365.7817672578818	108.3029980028185	-160.66663207907618	151.64235247304944	220.47000162430194
1839	9.19	-175.93717158570044	566.3874667743586	392.5695877852542	-287.60544526302584	365.678178826191	107.44818423669427	-160.26859837622908	151.04689751597795	218.60280466430584
1840	9.195	-176.07926836624424	565.7455561303706	392.38025651921856	-287.2558483366588	365.5749815542206	106.59995665206702	-159.87215000244032	150.46081638078255	216.7470204067772
1841	9.2	-176.21849654978996	565.1042737031293	392.1914086921594	-286.908724484121	365.4721861019014	105.75838680595606	-159.4774401551989	149.883984455393	214.9029290892314
1842	9.205	-176.35485162961493	564.46372934794	392.00308712412084	-286.5640981890174	365.3698006568935	104.92354514072414	-159.08461557795613	149.31627498011744	213.0708063520824
1843	9.21	-176.48833144432248	563.8240318649403	391.8153346344591	-286.22199263391406	365.2678307631203	104.09550109430987	-158.69381644647297	148.75755900650128	211.2509231784927
1844	9.215	-176.61893618550025	563.1852888722566	391.62819401508256	-285.8824297585042	365.1662791545762	103.2743232057525	-158.30517626677317	148.20770535846367	209.44354582586442
1845	9.22	-176.7466684000799	562.5476066829832	391.44170800213607	-285.5454303181206	365.0651455953356	102.46007921478356	-157.91882178481458	147.6665805967665	207.64893574859371
1846	9.225	-176.871532987437	561.911090186279	391.2559192461212	-285.21101394205414	364.9644267266892	101.65283615429502	-157.53487290798606	147.13404898786567	205.8673495117942
1847	9.23	-176.99353719128771	561.2758427328741	391.0708702804539	-284.8791991911365	364.8641159223381	100.85266043454001	-157.1534426385317	146.60997247818074	204.09903869577812
1848	9.235	-177.11269058645485	560.6419660252492	390.88660348846753	-284.55000361404996	364.7642031525626	100.05961791797823	-156.77463701899535	146.09421067479911	202.34424979117097
1849	9.24	-177.22900506059182	560.0095600127406	390.7031610688805	-284.223443801836	364.66467485827525	99.27377398374492	-156.3985550897698	145.58662083360355	200.603224084626
1850	9.245	-177.34249479096775	559.3787227918039	390.520584999756	-283.8995354400911	364.5655138358489	98.49519358079797	-156.02528885882265	145.08705785577686	198.87619753519346
1851	9.25	-177.453176216431	558.7495505116459	390.3389170009904	-283.57829335836175	364.4666991335888	97.72394126888203	-155.654923283661	144.59537429359733	197.16340064149352
1852	9.255	-177.56106800468334	558.1221372854224	390.1581984953753	-283.25973157627743	364.3682059606919	96.9600812465412	-155.28753626557904	144.11142036638864	195.4650582999319
1853	9.26	-177.66619101500783	557.496575107171	389.9784705682919	-282.9438633459939	364.2700056095051	96.20367736551222	-154.92319865622133	143.635043987434	193.78138965428968
1854	9.265	-177.76856825660664	556.872953774639	389.7997739260997	-282.6307011905581	364.1720653918577	95.45479313093624	-154.56197427647317	143.16609080260218	192.11260793710858
1855	9.27	-177.86822484271553	556.2513608181326	389.6221488532946	-282.32025693785005	364.0743485902047	94.71349168693901	-154.20391994767266	142.7044042413654	190.45892030338186
1856	9.275	-177.965187940672	555.6318814355085	389.4456351685208	-282.0125417498021	363.97681442427154	93.97983578724708	-153.84908553511855	142.24982558081473	188.82052765714656
1857	9.28	-178.05948671812368	555.014598433393	389.2702721795267	-281.70756614664975	363.8794180338442	93.25388775062758	-153.497514003824	141.8021940232003	187.19762447165579
1858	9.285	-178.15115228557124	554.3995921747083	389.0960986371677	-281.4053400260201	363.78211047829296	92.5357094010623	-153.1492414864452	141.36134678743815	185.590398603888
1859	9.29	-178.24021763544803	553.786940532552	388.92315268856356	-281.1058726767209	363.6848387533645	91.82536199269259	-152.8042973632859	140.92711921493733	183.99903110422542
1860	9.295	-178.3267175779454	553.1767188504641	388.7514718295297	-280.80917278715236	363.5875458257142	91.12290611969618	-152.46270435425532	140.4993448900052	182.42369602220222
1861	9.3	-178.41068867379764	552.5689999090943	388.58109285640484	-280.5152484483216	363.49017068558527	90.42840161138277	-152.12447862262496	140.0778557749952	180.86456020928603
1862	9.305	-178.49216916424552	551.9638538992571	388.4120518174116	-280.2241071514993	363.39264841797456	89.74190741291858	-151.78962989040426	139.66248236025777	179.3217831197149
1863	9.31	-178.57119889840195	551.3613484013507	388.2443839636849	-279.9357557806179	363.29491029255007	89.06348145221051	-151.45816156512018	139.25305382885563	177.7955166104606
1864	9.315	-178.64781925824482	550.76154837109	388.07812370011766	-279.65020059956544	363.1968838725103	88.3931804935981	-151.13007087775705	138.84939823589855	176.28590474143414
1865	9.32	-178.7220730814657	550.1645161314901	387.9133045361729	-279.36744723458827	363.0984931424947	87.73105997911286	-150.80534903157687	138.45134270224943	174.79308357708499
1866	9.325	-178.79400458240286	549.5703113710119	387.7499590368208	-279.0875006520657	362.9996586555707	87.07717385817155	-150.4839813615073	138.05871362224792	173.31718099057383
1867	9.33	-178.86365927128955	548.978991147773	387.58811877375985	-278.81036513197216	362.9002976992353	86.43157440666863	-150.16594750374867	137.67133688499425	171.8583164717192
1868	9.335	-178.93108387204595	548.3906098996998	387.4278142770895	-278.5360442373847	362.8003244802777	85.79431203652511	-149.85122157521505	137.28903810863346	170.41660093993195
1869	9.34	-178.99632623884432	547.8052194604883	387.26907498760073	-278.26454078043884	362.69965032825655	85.16543509683416	-149.53977236238788	136.9116428869802	168.99213656335485
1870	9.345	-179.05943527167315	547.2228690812195	387.1119292098568	-277.9958567851692	362.5981839172466	84.54498966781718	-149.23156351912306	136.53897704772763	167.58501658542227
1871	9.35	-179.12046083112466	546.6436054574657	386.95640406623687	-277.7299934477045	362.4958315054115	83.93301934886833	-148.92655377291615	136.17086692139202	166.19532516004227
1872	9.355	-179.1794536526268	546.0674727617012	386.80252545211505	-277.4669510943111	362.39249719185705	83.32956504201944	-148.62469713909223	135.807139620056	164.8231371965851
1873	9.36	-179.2364652603361	545.4945126808284	386.65031799235004	-277.20672913780203	362.28808319011705	82.7346647321994	-148.32594314235166	135.44762332489216	163.46851821583346
1874	9.365	-179.2915478809044	544.9247644586081	386.49980499925897	-276.9493260328393	362.182490117519	82.14835326569576	-148.03023704506688	135.09214758137261	162.13152421801658
1875	9.37	-179.3447543573262	544.3582649427752	386.35100843224654	-276.69473923067096	362.075617299575	81.57066212824638	-147.73752008169203	134.74054360100106	160.81220156400656
1876	9.375	-179.3961380630692	543.7950486366099	386.20394885926135	-276.4429651338454	361.96736308843884	81.00161922420082	-147.44772969861435	134.39264456834263	159.51058687070702
